<?xml version="1.0" encoding="UTF-8" standalone="no"?>
<!-- Created with Inkscape (http://www.inkscape.org/) -->

<svg
   xmlns:dc="http://purl.org/dc/elements/1.1/"
   xmlns:cc="http://creativecommons.org/ns#"
   xmlns:rdf="http://www.w3.org/1999/02/22-rdf-syntax-ns#"
   xmlns:svg="http://www.w3.org/2000/svg"
   xmlns="http://www.w3.org/2000/svg"
   xmlns:sodipodi="http://sodipodi.sourceforge.net/DTD/sodipodi-0.dtd"
   xmlns:inkscape="http://www.inkscape.org/namespaces/inkscape"
   width="321.40625"
   height="193.6875"
   id="svg3062"
   version="1.1"
   inkscape:version="0.48.3.1 r9886"
   sodipodi:docname="braet.pdf">
  <defs
     id="defs3064" />
  <sodipodi:namedview
     id="base"
     pagecolor="#ffffff"
     bordercolor="#666666"
     borderopacity="1.0"
     inkscape:pageopacity="0.0"
     inkscape:pageshadow="2"
     inkscape:zoom="1"
     inkscape:cx="157.58461"
     inkscape:cy="99.865789"
     inkscape:document-units="px"
     inkscape:current-layer="layer1"
     showgrid="false"
     fit-margin-top="0"
     fit-margin-left="0"
     fit-margin-right="0"
     fit-margin-bottom="0"
     inkscape:window-width="1440"
     inkscape:window-height="886"
     inkscape:window-x="0"
     inkscape:window-y="14"
     inkscape:window-maximized="0" />
  <metadata
     id="metadata3067">
    <rdf:RDF>
      <cc:Work
         rdf:about="">
        <dc:format>image/svg+xml</dc:format>
        <dc:type
           rdf:resource="http://purl.org/dc/dcmitype/StillImage" />
        <dc:title></dc:title>
      </cc:Work>
    </rdf:RDF>
  </metadata>
  <g
     inkscape:label="Layer 1"
     inkscape:groupmode="layer"
     id="layer1"
     transform="translate(-167.375,-234.15625)">
    <rect
       style="fill:#ffffff;fill-opacity:1;stroke:#000000;stroke-opacity:1"
       id="rect2987"
       width="64"
       height="64"
       x="168"
       y="234.6479" />
    <rect
       style="fill:#ffffff;fill-opacity:1;stroke:#000000;stroke-opacity:1"
       id="rect2987-2"
       width="64"
       height="64"
       x="168.0067"
       y="298.72531" />
    <rect
       style="fill:#ffffff;fill-opacity:1;stroke:#000000;stroke-opacity:1"
       id="rect2987-6"
       width="64"
       height="64"
       x="231.82346"
       y="234.85393" />
    <rect
       style="fill:#ffffff;fill-opacity:1;stroke:#000000;stroke-opacity:1"
       id="rect2987-2-8"
       width="64"
       height="64"
       x="231.83015"
       y="298.93134" />
    <rect
       style="fill:#ffffff;fill-opacity:1;stroke:#000000;stroke-opacity:1"
       id="rect2987-9"
       width="64"
       height="64"
       x="296.05225"
       y="235.07353" />
    <rect
       style="fill:#ffffff;fill-opacity:1;stroke:#000000;stroke-opacity:1"
       id="rect2987-2-3"
       width="64"
       height="64"
       x="296.05896"
       y="299.15097" />
    <rect
       style="fill:#ffffff;fill-opacity:1;stroke:#000000;stroke-opacity:1"
       id="rect2987-2-5"
       width="64"
       height="64"
       x="167.99463"
       y="362.61349" />
    <rect
       style="fill:#ffffff;fill-opacity:1;stroke:#000000;stroke-opacity:1"
       id="rect2987-2-8-9"
       width="64"
       height="64"
       x="231.81808"
       y="362.81952" />
    <rect
       style="fill:#ffffff;fill-opacity:1;stroke:#000000;stroke-opacity:1"
       id="rect2987-2-3-3"
       width="64"
       height="64"
       x="296.04691"
       y="363.03915" />
    <rect
       style="fill:#ffffff;fill-opacity:1;stroke:#000000;stroke-opacity:1"
       id="rect2987-6-0"
       width="64"
       height="64"
       x="359.92847"
       y="234.993" />
    <rect
       style="fill:#ffffff;fill-opacity:1;stroke:#000000;stroke-opacity:1"
       id="rect2987-2-8-1"
       width="64"
       height="64"
       x="359.93515"
       y="299.0704" />
    <rect
       style="fill:#ffffff;fill-opacity:1;stroke:#000000;stroke-opacity:1"
       id="rect2987-9-3"
       width="64"
       height="64"
       x="424.15726"
       y="235.2126" />
    <rect
       style="fill:#ffffff;fill-opacity:1;stroke:#000000;stroke-opacity:1"
       id="rect2987-2-3-34"
       width="64"
       height="64"
       x="424.16397"
       y="299.29004" />
    <rect
       style="fill:#ffffff;fill-opacity:1;stroke:#000000;stroke-opacity:1"
       id="rect2987-2-8-9-3"
       width="64"
       height="64"
       x="359.9231"
       y="362.95859" />
    <rect
       style="fill:#ffffff;fill-opacity:1;stroke:#000000;stroke-opacity:1"
       id="rect2987-2-3-3-7"
       width="64"
       height="64"
       x="424.15192"
       y="363.17822" />
    <path
       style="fill:#000000;fill-opacity:1;stroke:#000000;stroke-width:0.33547747;stroke-opacity:1"
       d="m 232.63621,266.85062 0,-31.19941 31.19941,0 31.1994,0 0,31.19941 0,31.1994 -31.1994,0 -31.19941,0 0,-31.1994 z"
       id="path3213"
       inkscape:connector-curvature="0" />
    <path
       style="fill:#000000;fill-opacity:1;stroke:#000000;stroke-width:0.33547747;stroke-opacity:1"
       d="m 168.56001,394.4998 0,-31.36715 31.36715,0 31.36714,0 0,31.36715 0,31.36714 -31.36714,0 -31.36715,0 0,-31.36714 z"
       id="path3215"
       inkscape:connector-curvature="0" />
    <path
       style="fill:#000000;fill-opacity:1;stroke:#000000;stroke-width:0.33547747;stroke-opacity:1"
       d="m 296.71241,331.09455 0,-31.36714 31.1994,0 31.19941,0 0,31.36714 0,31.36715 -31.19941,0 -31.1994,0 0,-31.36715 z"
       id="path3217"
       inkscape:connector-curvature="0" />
    <path
       style="fill:#000000;fill-opacity:1;stroke:#000000;stroke-width:0.33547747;stroke-opacity:1"
       d="m 424.8648,267.1861 0,-31.19941 31.36715,0 31.36714,0 0,31.19941 0,31.1994 -31.36714,0 -31.36715,0 0,-31.1994 z"
       id="path3219"
       inkscape:connector-curvature="0" />
    <path
       style="fill:#000000;fill-opacity:1;stroke:#000000;stroke-width:0.33547747;stroke-opacity:1"
       d="m 360.45313,394.83528 0,-31.36715 31.36714,0 31.36715,0 0,31.36715 0,31.36714 -31.36715,0 -31.36714,0 0,-31.36714 z"
       id="path3221"
       inkscape:connector-curvature="0" />
    <path
       style="fill:#000000;fill-opacity:1;stroke:#000000;stroke-width:0.33547747;stroke-opacity:1"
       d="m 295.78985,427.24172 -128.23627,-0.315 0,-96.29566 0,-96.29566 96.36591,0.2234 c 53.00124,0.12286 125.23793,0.22342 160.52597,0.22345 l 64.16006,7e-5 0,96.44977 0,96.44978 -32.2897,-0.0626 c -17.75934,-0.0344 -89.99603,-0.20432 -160.52597,-0.37757 z m 63.65685,-32.26891 0,-31.70262 -31.53489,0 -31.53488,0 0,31.70262 0,31.70262 31.53488,0 31.53489,0 0,-31.70262 z m 64.07619,0 0,-31.70262 -31.70262,0 -31.70262,0 0,31.70262 0,31.70262 31.70262,0 31.70262,0 0,-31.70262 z m 64.41168,0.16774 0,-31.53488 -31.70262,0 -31.70262,0 0,31.53488 0,31.53488 31.70262,0 31.70262,0 0,-31.53488 z m -256.30479,-0.50321 0,-31.70263 -31.70262,0 -31.70262,0 0,31.70263 0,31.70262 31.70262,0 31.70262,0 0,-31.70262 z m 63.74072,0.16773 0,-31.53488 -31.53488,0 -31.53489,0 0,31.53488 0,31.53489 31.53489,0 31.53488,0 0,-31.53489 z m 192.56407,-63.57298 0,-31.70262 -31.70262,0 -31.70262,0 0,31.70262 0,31.70262 31.70262,0 31.70262,0 0,-31.70262 z m -192.56407,-0.33547 0,-31.70263 -31.53488,0 -31.53489,0 0,31.70263 0,31.70262 31.53489,0 31.53488,0 0,-31.70262 z m 64.0762,0.16773 0,-31.53488 -31.53489,0 -31.53488,0 0,31.53488 0,31.53489 31.53488,0 31.53489,0 0,-31.53489 z m 64.07619,0 0,-31.53488 -31.70262,0 -31.70262,0 0,31.53488 0,31.53489 31.70262,0 31.70262,0 0,-31.53489 z m -191.89311,-0.33547 0,-31.53489 -31.70262,0 -31.70262,0 0,31.53489 0,31.53488 31.70262,0 31.70262,0 0,-31.53488 z m 127.81692,-63.57299 0,-31.70262 -31.53489,0 -31.53488,0 0,31.70262 0,31.70263 31.53488,0 31.53489,0 0,-31.70263 z m 128.48787,0 0,-31.70262 -31.70262,0 -31.70262,0 0,31.70262 0,31.70263 31.70262,0 31.70262,0 0,-31.70263 z m -192.56407,-0.33547 0,-31.70262 -31.53488,0 -31.53489,0 0,31.70262 0,31.70262 31.53489,0 31.53488,0 0,-31.70262 z m 128.15239,0.16774 0,-31.53489 -31.70262,0 -31.70262,0 0,31.53489 0,31.53488 31.70262,0 31.70262,0 0,-31.53488 z m -191.89311,-0.33548 0,-31.53488 -31.70262,0 -31.70262,0 0,31.53488 0,31.53488 31.70262,0 31.70262,0 0,-31.53488 z"
       id="path3223"
       inkscape:connector-curvature="0" />
  </g>
</svg>
